HIERARCHY
ROOT hip
{
  OFFSET 0.0 0.0 0.0
  CHANNELS 6 Xposition Yposition Zposition Zrotation Yrotation Xrotation
  JOINT torso
  {
    OFFSET 0.0 0.0 0.0
    CHANNELS 3 Zrotation Xrotation Yrotation
    JOINT neck
    {
      OFFSET -8.600829999999974 327.7417449999999 60.895874000000276
      CHANNELS 3 Zrotation Xrotation Yrotation
      JOINT head
      {
        OFFSET 0.7211610000001087 266.848846 239.12060599999995
        CHANNELS 3 Zrotation Xrotation Yrotation
        End Site
        {
          OFFSET 0.0 0.0 0.0
        }
      }
    }
    JOINT left_collar
    {
      OFFSET -8.600829999999974 327.7417449999999 60.895874000000276
      CHANNELS 3 Zrotation Xrotation Yrotation
      JOINT left_upper_arm
      {
        OFFSET -122.29599000000002 -5.21875 31.800903999999946
        CHANNELS 3 Zrotation Xrotation Yrotation
        JOINT left_forearm
        {
          OFFSET -195.94708199999997 63.423126000000025 226.99352999999996
          CHANNELS 3 Zrotation Xrotation Yrotation
          JOINT left_hand
          {
            OFFSET -232.19226099999992 28.282164999999964 80.86950699999989
            CHANNELS 3 Zrotation Xrotation Yrotation
            End Site
            {
              OFFSET 0.0 0.0 0.0
            }
          }
        }
      }
    }
    JOINT right_collar
    {
      OFFSET -8.600829999999974 327.7417449999999 60.895874000000276
      CHANNELS 3 Zrotation Xrotation Yrotation
      JOINT right_upper_arm
      {
        OFFSET 168.41261300000002 -11.913361000000066 -9.389160000000174
        CHANNELS 3 Zrotation Xrotation Yrotation
        JOINT right_forearm
        {
          OFFSET 213.49279800000005 104.82293699999997 83.52258300000017
          CHANNELS 3 Zrotation Xrotation Yrotation
          JOINT right_hand
          {
            OFFSET 222.067185 62.005675999999994 -110.52026300000034
            CHANNELS 3 Zrotation Xrotation Yrotation
            End Site
            {
              OFFSET 0.0 0.0 0.0
            }
          }
        }
      }
    }
  }
}
MOTION
Frames: 19
Frame Time: 0.01
-135.25561399969342 134.64184650270232 1361.4464135898847 -0.6664551102629662 -2.954621371016433 -25.464788747409635 -2.1288970302259793 8.569316096417198 0.46766822588620066 -4.88647426313392 -4.634941209158733 4.4293784129312685 0.0 0.0 0.0 0.5858713414692485 0.09794671804547436 1.1335509700750535 23.83068655321114 35.65026670844586 -41.739656098548686 15.109562909475079 6.1982848167014994 -33.124642098809645 0.0 0.0 0.0 -0.4648713319185936 -0.21721997823697717 -2.5528042037181122 -57.69510395963216 20.177493583375384 9.315838732412292 -28.502879196607463 -12.551447625656127 32.63745902728211 0.0 0.0 0.0
-135.29259200035594 134.33634429291877 1358.1974952950077 -0.5301351095703095 -3.1424555930871745 -25.3241278287677 -2.131846313727764 8.443517382013354 0.466923287506654 -4.782042048527268 -4.189457343318 4.330394936207152 0.0 0.0 0.0 0.506836948557618 0.09678739966344961 0.7402435095392474 23.738863221060186 35.62765503661563 -42.15090614614351 14.777156607779828 5.966811494696321 -33.27787188759973 0.0 0.0 0.0 -0.6459862669257185 -0.25621412129738713 -2.8764466785184974 -57.52637382416686 20.108841240496123 9.292657366437158 -28.28380876668026 -12.507750048872028 33.08173156868479 0.0 0.0 0.0
-135.33610233524382 134.05137694730382 1354.90511592647 -0.39572269455581444 -3.3283149669072447 -25.18683508692278 -2.136964123119536 8.315223659204175 0.4664125417121918 -4.677882509849894 -3.7438155754060096 4.231777811186136 0.0 0.0 0.0 0.4263687291319179 0.09461015029268828 0.34918331959745585 23.647314482002745 35.60539690217852 -42.563794302319074 14.444246474332122 5.733369996973389 -33.42276430147246 0.0 0.0 0.0 -0.8276205426718561 -0.29625162676726 -3.1994392454563996 -57.36047423204174 20.04123071246616 9.268089075320955 -28.06242790321376 -12.465486568860857 33.52333913920283 0.0 0.0 0.0
-135.3868125009916 133.79693045620132 1351.554409938055 -0.2653635257871238 -3.5103905794031354 -25.055606596835972 -2.143963502639701 8.18557620139065 0.46612004856891764 -4.575298365613539 -3.3016815022872446 4.134739477892836 0.0 0.0 0.0 0.34531547312910393 0.09144448376505587 -0.03571933162910896 23.557436654695767 35.58543327438437 -42.97559126682187 14.11421387934556 5.500423669317283 -33.55670450566741 0.0 0.0 0.0 -1.0079402743391253 -0.33698208898927834 -3.51935726989352 -57.19853608973372 19.974984127862463 9.24083230020149 -27.842002969053066 -12.425184675850433 33.959060283821785 0.0 0.0 0.0
-135.4453423336987 133.58269624069052 1348.129324333333 -0.14115085402746866 -3.6869406848816753 -24.93307911948219 -2.152441350199876 8.055733977688952 0.466015029892007 -4.475613601763268 -2.866618358956509 4.040505227284065 0.0 0.0 0.0 0.2645694739369092 0.0873592606478524 -0.41066412129068436 23.47051424916536 35.56968963006849 -43.383869513278476 13.790304252649133 5.270413857049523 -33.67733162459109 0.0 0.0 0.0 -1.1851456417181032 -0.37802942837409587 -3.833872799142176 -57.041529649481376 19.91037886819516 9.209706748402812 -27.625795194636193 -12.387294711228709 34.38580308649385 0.0 0.0 0.0
-135.5122205098274 133.41777745623847 1344.6133933722808 -0.025074711546815225 -3.856333190867649 -24.821766339032514 -2.1618867834935735 7.926846571996093 0.4660517837549943 -4.380139875803234 -2.4420222076275446 3.950282395646127 0.0 0.0 0.0 0.18504467723970577 0.0824602287500239 -0.7720376446897517 23.387674480792914 35.55998484624885 -43.7865512570967 13.475542307312462 5.045687116283889 -33.78260603590043 0.0 0.0 0.0 -1.3575108784848609 -0.4190004169213076 -4.140785224147465 -56.89025218261434 19.847646179720414 9.17370615241949 -27.41695523787511 -12.352179743387138 34.800641452645635 0.0 0.0 0.0
-135.58783272830368 133.3104102710184 1340.9905192433187 0.08102359194050862 -4.0170859073755265 -24.72400110454426 -2.171692957061491 7.8000274205342155 0.46617017193744237 -4.290142675389235 -2.031063320070673 3.8652297175414727 0.0 0.0 0.0 0.1076530869135408 0.0768853106668931 -1.1164815384015128 23.309849689545782 35.557941722810035 -44.18193756173675 13.172655347779159 4.828424285375021 -33.870864837836905 0.0 0.0 0.0 -1.5234219730589633 -0.45949385726442177 -4.4380434219729405 -56.74532275074404 19.786971353214156 9.132042712592476 -27.218419446797714 -12.320109896245496 35.2008460315807 0.0 0.0 0.0
-135.67236265995638 133.26771041682034 1337.2457253795878 0.17549035531360124 -4.167903063429673 -24.641885756283408 -2.181171609634924 7.676328894354817 0.4662966686223183 -4.2068088233535725 -1.636635522658899 3.7864282606065243 0.0 0.0 0.0 0.03328039009893763 0.07079790664158138 -1.4409496783992364 23.2377488839621 35.56490373579705 -44.56871827990386 12.88400784117451 4.620575280648457 -33.9408644978153 0.0 0.0 0.0 -1.6814109523406597 -0.49910996792013607 -4.723759275505034 -56.60718438430057 19.728495656750063 9.08418141968256 -27.032812785982504 -12.291261082669307 35.58390970272477 0.0 0.0 0.0
-135.76572753823746 133.29545416240094 1333.3658510933205 0.25689116087279495 -4.307706800303127 -24.57725203834694 -2.189569839521763 7.556720875784251 0.4663459615076492 -4.1312167133647435 -1.261315035008614 3.7148551508814367 0.0 0.0 0.0 -0.037238164025384525 0.06437865211243879 -1.742753353518398 23.17183911684047 35.58186221141733 -44.94596333292634 12.611550101957 4.4238033724881465 -33.99181043320935 0.0 0.0 0.0 -1.8301856601104258 -0.5374595590994995 -4.996213417878892 -56.47611383177764 19.672320183368264 9.029862957049334 -26.862363352890643 -12.265717830983368 35.947567625420824 0.0 0.0 0.0
-135.867511026599 133.39790130201723 1329.3401597061118 0.32403541425438853 -4.43566259611933 -24.53163141843841 -2.1960888455765883 7.442074382499934 0.4662230999949384 -4.064310335977485 -0.9073299734660283 3.651360982761238 0.0 0.0 0.0 -0.10314061728533298 0.05781619542493229 -2.0195943729089025 23.112336972530503 35.609397479324635 -45.313096440517526 12.356783418800859 4.23944225550879 -34.02337387064275 0.0 0.0 0.0 -1.96865404269775 -0.574172654821934 -5.253854941991917 -56.35223884833861 19.61851171742602 8.969114484689124 -26.70883295228006 -12.243479658558813 36.289811920410024 0.0 0.0 0.0
-135.9768966419315 133.5776660473324 1325.1608373224065 0.37599426457335866 -4.551197788688274 -24.506236008386033 -2.199904500251996 7.333151412700296 0.46582617564776546 -4.006877805131831 -0.5765412164360734 3.596651477465992 0.0 0.0 0.0 -0.16375897855049784 0.051297624633165013 -2.2695869673668985 23.059210134170613 35.647636819641754 -45.66985282411481 12.120743231581146 4.0684684657689765 -34.03569673519668 0.0 0.0 0.0 -2.0959421285442774 -0.608906304316248 -5.495297412704196 -56.235562704221195 19.567110618368456 8.902248284888252 -26.573467319990478 -12.22447026227048 36.60890112592485 0.0 0.0 0.0
-136.09260548267048 133.83564004350393 1320.8233657548808 0.4121125989091244 -4.6540125217415 -24.50194977392826 -2.2001896024995444 7.230601517158069 0.4650494946218025 -3.959534779523835 -0.27043472995039775 3.551273661921274 0.0 0.0 0.0 -0.2185369872750958 0.04499916946684212 -2.491269965126996 23.012188787247617 35.696231238664296 -46.016222692335205 11.90400103192061 3.911490651727065 -34.02938552626606 0.0 0.0 0.0 -2.211405165421595 -0.6413514133356597 -5.719313716190855 -56.1259951690036 19.518140558204056 8.829848959230937 -26.456968348472348 -12.208548676697422 36.903364689867864 0.0 0.0 0.0
-136.21284227869268 134.1709701276423 1316.3267605214633 0.43201579786378796 -4.74408258608471 -24.51932933990106 -2.1961375298245716 7.134964749722664 0.46378716625964844 -3.92271291756436 0.009875252468818799 3.5156066088513604 0.0 0.0 0.0 -0.26704443109233045 0.039077746961802794 -2.683611034036918 22.97078643540499 35.7543522952271 -46.35238260777789 11.706684540563202 3.768755951287705 -34.00549515429073 0.0 0.0 0.0 -2.3146317562114263 -0.6712385057343065 -5.924832099670763 -56.02338870009388 19.47161974721055 8.752750545725446 -26.359489181421456 -12.195521506555485 37.17200294008176 0.0 0.0 0.0
-136.33525384483414 134.58109180573044 1311.673672499934 0.43561183530154934 -4.821653824114162 -24.558613414821885 -2.186986837546299 7.046679795533064 0.4619369961233694 -3.896653308678878 0.26363352020012265 3.489856607813176 0.0 0.0 0.0 -0.308987666090094 0.03366382721197276 -2.8460047982777326 22.93432947100556 35.820709311905134 -46.67861725491069 11.528514521454143 3.6401724099275796 -33.965503562504175 0.0 0.0 0.0 -2.4054412374513143 -0.6983423900666774 -6.110935295988871 -55.927578054976465 19.42757309228716 8.67200550054123 -26.2806514891973 -12.185155372955856 37.413883176140295 0.0 0.0 0.0
-136.4569038837773 135.06181761257008 1306.8703587372527 0.4230891676139515 -4.887228039801697 -24.619739655535273 -2.1720462003887717 6.966095418094603 0.45940454363259586 -3.8814046695712294 0.49042356055401093 3.474056508973101 0.0 0.0 0.0 -0.3442161248607981 0.02885598654107962 -2.978266406214151 22.90199451308794 35.89358634217177 -46.99523471302211 11.36885549735848 3.525345178743496 -33.91127768325916 0.0 0.0 0.0 -2.483874866561095 -0.7224857473261527 -6.276864010268677 -55.838421189453285 19.386044605891158 8.58884789419306 -26.21958280983633 -12.177188817772853 37.628332666685836 0.0 0.0 0.0
-136.57426774299168 135.6074774961917 1301.9265333460069 0.3949107165287135 -4.941540681932048 -24.702367657443165 -2.150718990077492 6.893483015461819 0.4561071877360733 -3.8768259625434616 0.6901418725988081 3.4680688782513562 0.0 0.0 0.0 -0.37272470569466143 0.024717395564070807 -3.0806217295556837 22.872852126468743 35.97089731467557 -47.302478992546696 11.226776791409398 3.423623315576255 -33.84503097345738 0.0 0.0 0.0 -2.550181559237093 -0.7435416694843682 -6.422025350793453 -55.75583915027378 19.347109337590613 8.504653352251433 -26.174970708592582 -12.171343070317025 37.81492935944991 0.0 0.0 0.0
-136.6832501760577 136.2111062261332 1296.8551131854056 0.35180411471178225 -4.98553090146846 -24.805906686092424 -2.122526731179755 6.829048049976052 0.45197803690279625 -3.8825929773231156 0.8629692206545502 3.4715925163262917 0.0 0.0 0.0 -0.39465205603884673 0.021274358138508455 -3.1536949072679126 22.84591513785779 36.05025696908592 -47.60044415790313 11.101119824864814 3.3341534683404355 -33.76927256777265 0.0 0.0 0.0 -2.6047989624437773 -0.7614351672017122 -6.546006056365688 -55.679852679823696 19.310884114896574 8.420898207782544 -26.145129761791882 -12.167331271236584 37.97349101962983 0.0 0.0 0.0
-136.77922838968533 136.86467075546295 1291.6718752827355 0.29474825170999297 -5.02030488961608 -24.929546757030344 -2.0871306467667177 6.772938371098164 0.44696951667473095 -3.8982083263350384 1.0093409184315487 3.484171830275144 0.0 0.0 0.0 -0.41027491228826074 0.01851687703049415 -3.198493479309783 22.82018942554581 36.129064613084005 -47.888994717532725 10.990567478466852 3.255936567909793 -33.68674808368882 0.0 0.0 0.0 -2.6483306260653463 -0.776143641043448 -6.648589656769141 -55.610613355487295 19.277536426639998 8.339120067436292 -26.128077017157164 -12.16486594350626 38.10406334428424 0.0 0.0 0.0
-136.85712168495522 137.55932868204735 1286.395043977823 0.2249560196395385 -5.0470936628559 -25.07229172382131 -2.0443504595183257 6.7252479153395655 0.4410564632773788 -3.9230142565810926 1.1299178466344673 3.505208521923533 0.0 0.0 0.0 -0.4199988081751175 0.016401087337997847 -3.216390914966945 22.79472480090454 36.20459735045519 -48.16769707415615 10.893711546583173 3.1878838637568405 -33.60037233605358 0.0 0.0 0.0 -2.681520013454801 -0.7876962887407927 -6.729776058938486 -55.548427254446814 19.24729084652223 8.26088159500663 -26.121611582842764 -12.163664677373765 38.20690739826578 0.0 0.0 0.0
